<?xml version="1.0" encoding="iso-8859-1"?>
<!-- Generator: Adobe Illustrator 19.0.0, SVG Export Plug-In . SVG Version: 6.00 Build 0)  -->
<svg version="1.1" id="Capa_1" xmlns="http://www.w3.org/2000/svg" xmlns:xlink="http://www.w3.org/1999/xlink" x="0px" y="0px"
	 viewBox="0 0 491.52 491.52" style="enable-background:new 0 0 491.52 491.52;" xml:space="preserve">
<circle style="fill:#E05B49;" cx="245.76" cy="245.76" r="245.76"/>
<path style="opacity:0.1;enable-background:new    ;" d="M491.52,245.76c0-6.073-0.297-12.073-0.73-18.035L384.05,120.985
	c-1.829-1.961-4.482-3.225-7.473-3.225H114.943c-5.514,0-9.983,4.207-9.983,9.397v158.702v33.185c0,2.602,1.125,4.956,2.941,6.658
	l164.374,164.374C395.53,476.848,491.52,372.528,491.52,245.76z"/>
<rect x="199.26" y="328.448" style="fill:#E1E6E9;" width="92.979" height="33.428"/>
<polygon style="fill:#D5D6DB;" points="199.26,361.87 199.26,328.44 292.259,328.44 "/>
<path style="fill:#2F4859;" d="M386.56,127.157c0-5.19-4.47-9.397-9.984-9.397H114.943c-5.514,0-9.983,4.207-9.983,9.397v158.702
	h281.6V127.157z"/>
<rect x="119.567" y="131.507" style="fill:#EBF0F3;" width="252.365" height="154.368"/>
<path style="fill:#2F4859;" d="M104.96,285.859v33.185c0,5.19,4.47,9.397,9.983,9.397h261.633c5.514,0,9.984-4.207,9.984-9.397
	v-33.185H104.96z"/>
<ellipse style="fill:#EBF0F3;" cx="245.76" cy="307.149" rx="12.79" ry="12.042"/>
<rect x="187.5" y="361.882" style="fill:#D5D6DB;" width="116.521" height="11.889"/>
<path style="fill:#E56353;" d="M217.978,154.118c-17.805,0-32.239,15.289-32.239,34.149c0,30.908,60.019,74.979,60.019,74.979
	l0.003-92.241C240.16,160.913,229.83,154.118,217.978,154.118z"/>
<path style="fill:#D15241;" d="M273.545,154.118c-11.852,0-22.182,6.795-27.784,16.888v-0.001v92.243l0,0
	c0,0,60.022-45.522,60.022-74.982C305.783,169.407,291.349,154.118,273.545,154.118z"/>
<path style="fill:#64798A;" d="M209.947,260.552c-0.88,0-1.71-0.453-2.18-1.218l-27.025-43.837h-16.435
	c-1.415,0-2.56-1.145-2.56-2.56c0-1.415,1.145-2.56,2.56-2.56h17.865c0.89,0,1.715,0.46,2.18,1.218l24.445,39.657l13.445-61.55
	c0.25-1.155,1.26-1.988,2.445-2.015c0.015,0,0.035,0,0.055,0c1.16,0,2.175,0.78,2.475,1.903l11.095,41.82l16.115-55.243
	c0.35-1.175,1.535-1.945,2.7-1.832c1.22,0.115,2.19,1.08,2.31,2.302l4.38,44.91l11.92-32.29c0.385-1.04,1.355-1.767,2.505-1.67
	c1.11,0.045,2.065,0.8,2.36,1.87l6.209,22.308h40.405c1.415,0,2.56,1.145,2.56,2.56c0,1.415-1.145,2.56-2.56,2.56h-42.349
	c-1.15,0-2.16-0.765-2.465-1.872l-4.605-16.55l-13.045,35.33c-0.415,1.118-1.475,1.795-2.725,1.653
	c-1.185-0.153-2.105-1.103-2.225-2.293l-4.175-42.812l-14.975,51.33c-0.32,1.102-1.165,2.022-2.49,1.843
	c-1.15-0.015-2.15-0.793-2.445-1.903l-10.735-40.467l-12.535,57.395c-0.22,1.02-1.04,1.803-2.07,1.978
	C210.231,260.539,210.086,260.552,209.947,260.552z"/>
<g>
</g>
<g>
</g>
<g>
</g>
<g>
</g>
<g>
</g>
<g>
</g>
<g>
</g>
<g>
</g>
<g>
</g>
<g>
</g>
<g>
</g>
<g>
</g>
<g>
</g>
<g>
</g>
<g>
</g>
</svg>
